<?xml version="1.0" encoding="UTF-8"?>
<!DOCTYPE svg PUBLIC "-//W3C//DTD SVG 1.1//EN" "http://www.w3.org/Graphics/SVG/1.1/DTD/svg11.dtd">
<svg xmlns="http://www.w3.org/2000/svg" version="1.1" width="321px" height="321px" style="shape-rendering:geometricPrecision; text-rendering:geometricPrecision; image-rendering:optimizeQuality; fill-rule:evenodd; clip-rule:evenodd" xmlns:xlink="http://www.w3.org/1999/xlink">
<g><path style="opacity:0.995" fill="#01b4ff" d="M 9.5,-0.5 C 109.833,-0.5 210.167,-0.5 310.5,-0.5C 314.808,1.80818 318.142,5.14152 320.5,9.5C 320.5,109.5 320.5,209.5 320.5,309.5C 317.99,315.264 313.657,318.93 307.5,320.5C 209.167,320.5 110.833,320.5 12.5,320.5C 6.26682,318.602 1.93349,314.602 -0.5,308.5C -0.5,209.5 -0.5,110.5 -0.5,11.5C 1.0118,5.9877 4.34513,1.9877 9.5,-0.5 Z"/></g>
<g><path style="opacity:1" fill="#f8fcff" d="M 119.5,173.5 C 118.5,173.5 117.5,173.5 116.5,173.5C 116.5,157.833 116.5,142.167 116.5,126.5C 118.133,123.203 120.8,121.536 124.5,121.5C 124.334,131.172 124.5,140.839 125,150.5C 129.833,145.667 134.667,140.833 139.5,136C 143.207,135.004 146.541,135.67 149.5,138C 143.985,143.348 138.652,148.848 133.5,154.5C 138.698,159.862 143.698,165.362 148.5,171C 148.355,171.772 148.022,172.439 147.5,173C 144.833,173.667 142.167,173.667 139.5,173C 134.667,168.167 129.833,163.333 125,158.5C 124.667,162.167 124.333,165.833 124,169.5C 122.951,171.384 121.451,172.718 119.5,173.5 Z"/></g>
<g><path style="opacity:1" fill="#f5fbff" d="M 157.5,122.5 C 164.997,121.804 166.997,124.637 163.5,131C 156.188,131.871 154.188,129.038 157.5,122.5 Z"/></g>
<g><path style="opacity:1" fill="#bbeaff" d="M 116.5,126.5 C 116.5,142.167 116.5,157.833 116.5,173.5C 117.5,173.5 118.5,173.5 119.5,173.5C 118.432,174.434 117.099,174.768 115.5,174.5C 115.17,158.325 115.504,142.325 116.5,126.5 Z"/></g>
<g><path style="opacity:1" fill="#4cc9ff" d="M 67.5,135.5 C 58.5,135.5 49.5,135.5 40.5,135.5C 40.5,136.5 40.5,137.5 40.5,138.5C 39.5655,137.432 39.2322,136.099 39.5,134.5C 49.015,134.173 58.3483,134.506 67.5,135.5 Z"/></g>
<g><path style="opacity:1" fill="#fbfdff" d="M 67.5,135.5 C 70.1483,135.738 71.9817,137.072 73,139.5C 73.4999,150.828 73.6665,162.162 73.5,173.5C 63.558,173.418 53.558,173.251 43.5,173C 42.6667,172.167 41.8333,171.333 41,170.5C 39.5236,165.924 39.1902,161.257 40,156.5C 40.7845,154.714 41.9512,153.214 43.5,152C 50.5236,151.831 57.5236,151.331 64.5,150.5C 65.7797,148.298 65.7797,146.132 64.5,144C 57.8333,143.667 51.1667,143.333 44.5,143C 42.3563,142.208 41.023,140.708 40.5,138.5C 40.5,137.5 40.5,136.5 40.5,135.5C 49.5,135.5 58.5,135.5 67.5,135.5 Z"/></g>
<g><path style="opacity:1" fill="#fcfeff" d="M 93.5,164.5 C 92.9569,164.56 92.6236,164.893 92.5,165.5C 97.1196,166.493 101.786,166.827 106.5,166.5C 109.167,167.167 110.833,168.833 111.5,171.5C 102.225,173.473 92.5578,174.14 82.5,173.5C 81.5041,173.586 80.6708,173.252 80,172.5C 79.3333,170.833 79.3333,169.167 80,167.5C 85.8051,159.394 91.9717,151.561 98.5,144C 93.5,143.667 88.5,143.333 83.5,143C 80.4612,141.423 79.1279,138.923 79.5,135.5C 89.8857,135.191 100.219,135.524 110.5,136.5C 111.724,138.898 111.558,141.231 110,143.5C 104.286,150.375 98.7856,157.375 93.5,164.5 Z"/></g>
<g><path style="opacity:1" fill="#fdfeff" d="M 160.5,135.5 C 161.833,135.5 163.167,135.5 164.5,135.5C 164.667,147.171 164.5,158.838 164,170.5C 162.355,172.662 160.188,173.995 157.5,174.5C 156.334,163.181 156.168,151.848 157,140.5C 157.997,138.677 159.164,137.01 160.5,135.5 Z"/></g>
<g><path style="opacity:1" fill="#f1faff" d="M 187.5,147.5 C 194.5,147.5 201.5,147.5 208.5,147.5C 208.703,149.39 208.037,150.89 206.5,152C 201.167,152.333 195.833,152.667 190.5,153C 189.167,158.333 189.167,163.667 190.5,169C 195.833,169.333 201.167,169.667 206.5,170C 208.037,171.11 208.703,172.61 208.5,174.5C 201.825,174.666 195.158,174.5 188.5,174C 187.584,173.626 186.75,173.126 186,172.5C 184.406,165.274 184.072,157.94 185,150.5C 186.045,149.627 186.878,148.627 187.5,147.5 Z"/></g>
<g><path style="opacity:1" fill="#f3fbff" d="M 216.5,147.5 C 222.509,147.334 228.509,147.501 234.5,148C 236.286,148.785 237.786,149.951 239,151.5C 239.667,157.5 239.667,163.5 239,169.5C 238.535,170.931 237.701,172.097 236.5,173C 229.916,174.544 223.249,174.877 216.5,174C 215.5,173.167 214.5,172.333 213.5,171.5C 212.372,164.884 212.205,158.218 213,151.5C 213.69,149.65 214.856,148.316 216.5,147.5 Z"/></g>
<g><path style="opacity:1" fill="#f5fcff" d="M 247.5,173.5 C 245.541,167.25 244.874,160.584 245.5,153.5C 245.848,150.981 247.181,149.147 249.5,148C 256.721,147.945 263.888,147.779 271,147.5C 274.981,146.784 277.981,148.118 280,151.5C 280.831,159.188 280.665,166.855 279.5,174.5C 278.186,173.687 277.019,172.687 276,171.5C 275.667,165.5 275.333,159.5 275,153.5C 272.333,152.167 269.667,152.167 267,153.5C 266.5,160.492 266.334,167.492 266.5,174.5C 264.097,174.607 262.264,173.607 261,171.5C 260.667,165.5 260.333,159.5 260,153.5C 257,152.167 254,152.167 251,153.5C 250.667,159.5 250.333,165.5 250,171.5C 249.583,172.756 248.75,173.423 247.5,173.5 Z"/></g>
<g><path style="opacity:1" fill="#28b8ff" d="M 218.5,152.5 C 223.179,152.334 227.845,152.501 232.5,153C 233,153.5 233.5,154 234,154.5C 237.633,168.697 232.466,173.364 218.5,168.5C 217.171,163.137 217.171,157.803 218.5,152.5 Z"/></g>
<g><path style="opacity:1" fill="#4bc8ff" d="M 245.5,153.5 C 244.874,160.584 245.541,167.25 247.5,173.5C 246.791,174.404 245.791,174.737 244.5,174.5C 244.175,167.313 244.509,160.313 245.5,153.5 Z"/></g>
<g><path style="opacity:1" fill="#0ab4ff" d="M 64.5,157.5 C 65.8143,159.895 65.8143,162.395 64.5,165C 59.1771,165.499 53.8437,165.666 48.5,165.5C 48.2606,163.533 48.5939,161.699 49.5,160C 54.7881,159.988 59.7881,159.155 64.5,157.5 Z"/></g>
<g><path style="opacity:1" fill="#bfebff" d="M 93.5,164.5 C 97.8333,165.167 102.167,165.833 106.5,166.5C 101.786,166.827 97.1196,166.493 92.5,165.5C 92.6236,164.893 92.9569,164.56 93.5,164.5 Z"/></g>
<g><path style="opacity:1" fill="#f5fbff" d="M 173.5,166.5 C 177.976,166.8 179.31,168.967 177.5,173C 171.339,173.878 170.006,171.711 173.5,166.5 Z"/></g>
<g><path style="opacity:1" fill="#b8e9ff" d="M 111.5,171.5 C 112.404,172.209 112.737,173.209 112.5,174.5C 102.319,174.827 92.3194,174.494 82.5,173.5C 92.5578,174.14 102.225,173.473 111.5,171.5 Z"/></g>
</svg>
