
<svg version="1.1" viewBox="0 0 1600 1600" width="1280" height="1280" xmlns="http://www.w3.org/2000/svg">
<path transform="translate(1551)" d="m0 0h40l1 6 8 1c0.1 6.15 0.1 6.15 0 8-1.97 1.97-5.35 1.66-8 2 0.01 0.88 0.01 1.77 0.02 2.67 0.01 3.29 0.03 6.58 0.03 9.87 0.01 1.42 0.02 2.84 0.03 4.27 0.01 2.04 0.01 4.09 0.02 6.14 0 1.23 0.01 2.46 0.01 3.73-0.11 3.32-0.11 3.32-0.68 6.14-0.67 2.21-0.67 2.21 0.57 4.18 0.07 1.54 0.08 3.08 0.06 4.62-0.01 0.82-0.02 1.64-0.02 2.48-0.02 0.63-0.03 1.25-0.04 1.9-2.89 0.83-4.89 1-8 1 0.01 1.18 0.01 2.35 0.02 3.56 0.01 4.35 0.03 8.7 0.03 13 0.01 1.88 0.02 3.77 0.03 5.65 0.01 2.71 0.01 5.41 0.02 8.11 0 0.85 0.01 1.7 0.01 2.57 0 2.02-0.05 4.04-0.11 6.06-1 1-1 1-4.56 1.06-1.14-0.02-2.27-0.04-3.44-0.06 0.01 0.69 0.01 1.38 0.02 2.1 0.02 3.11 0.03 6.22 0.04 9.34 0.01 1.09 0.02 2.17 0.03 3.3 0 1.03 0 2.07 0.01 3.13 0 0.96 0.01 1.92 0.01 2.91-0.11 2.22-0.11 2.22-1.11 3.22-2.33 0.04-4.67 0.04-7 0 0.01 0.93 0.01 1.87 0.02 2.83 0.01 3.45 0.03 6.91 0.03 10.4 0.01 1.5 0.02 2.99 0.03 4.49 0.01 2.15 0.01 4.29 0.02 6.44 0 1.29 0.01 2.59 0.01 3.92-0.11 2.96-0.11 2.96-1.11 3.96-2.33 0.04-4.67 0.04-7 0 0.01 0.93 0.01 1.87 0.02 2.83 0.01 3.45 0.03 6.91 0.03 10.4 0.01 1.5 0.02 2.99 0.03 4.49 0.01 2.15 0.01 4.29 0.02 6.44 0 1.29 0.01 2.59 0.01 3.92-0.11 2.96-0.11 2.96-1.11 3.96-2.33 0.04-4.67 0.04-7 0-0.76 10.4-1.13 20.6-1 31-3 1-3 1-7 1 0.01 0.58 0.01 1.16 0.02 1.75 0.16 21.2 0.16 21.2-1.02 30.2h-7c0.01 0.93 0.01 1.87 0.02 2.83 0.01 3.45 0.03 6.91 0.03 10.4 0.01 1.5 0.02 2.99 0.03 4.49 0.01 2.15 0.01 4.29 0.02 6.44 0 1.29 0.01 2.59 0.01 3.92-0.11 2.96-0.11 2.96-1.11 3.96-2.33 0.33-4.67 0.67-7 1-1.4 1.17-1.4 1.17-1.12 4.44-0.13 3.4-0.13 3.4 1.12 5.56 0.08 1.52 0.11 3.05 0.1 4.57-0.01 1.34-0.01 1.34-0.01 2.72-0.01 0.93-0.02 1.87-0.03 2.83 0 0.95-0.01 1.89-0.01 2.87-0.01 2.34-0.03 4.67-0.05 7.01-2.89 0.83-4.89 1-8 1 0.01 0.93 0.01 1.87 0.02 2.83 0.01 3.45 0.03 6.91 0.03 10.4 0.01 1.5 0.02 2.99 0.03 4.49 0.01 2.15 0.01 4.29 0.02 6.44 0 1.29 0.01 2.59 0.01 3.92-0.11 2.96-0.11 2.96-1.11 3.96-2.33 0.37-4.66 0.7-7 1 0.01 0.9 0.01 1.81 0.02 2.74 0.01 3.34 0.03 6.68 0.03 10l0.03 4.35c0.01 2.07 0.01 4.15 0.02 6.23 0 1.25 0.01 2.5 0.01 3.79-0.11 2.87-0.11 2.87-1.11 3.87-2.33 0.04-4.67 0.04-7 0 0.01 0.93 0.01 1.87 0.02 2.83 0.01 3.45 0.03 6.91 0.03 10.4 0.01 1.5 0.02 2.99 0.03 4.49 0.01 2.15 0.01 4.29 0.02 6.44 0 1.29 0.01 2.59 0.01 3.92-0.11 2.96-0.11 2.96-1.11 3.96-2.33 0.37-4.66 0.7-7 1 0.01 0.9 0.01 1.81 0.02 2.74 0.01 3.34 0.03 6.68 0.03 10l0.03 4.35c0.01 2.07 0.01 4.15 0.02 6.23 0 1.25 0.01 2.5 0.01 3.79-0.11 2.87-0.11 2.87-1.11 3.87-2.33 0.04-4.67 0.04-7 0 0.01 1.18 0.01 2.35 0.02 3.56 0.01 4.35 0.03 8.7 0.03 13 0.01 1.88 0.02 3.77 0.03 5.65 0.01 2.71 0.01 5.41 0.02 8.11 0 0.85 0.01 1.7 0.01 2.57 0 2.02-0.05 4.04-0.11 6.06-1 1-1 1-4.56 1.06-1.14-0.02-2.27-0.04-3.44-0.06 0.01 0.69 0.01 1.38 0.02 2.1 0.02 3.11 0.03 6.22 0.04 9.34 0.01 1.09 0.02 2.17 0.03 3.3 0 1.03 0 2.07 0.01 3.13 0.01 1.44 0.01 1.44 0.01 2.91-0.11 2.22-0.11 2.22-1.11 3.22-2.33 0.04-4.67 0.04-7 0 0.01 0.93 0.01 1.87 0.02 2.83 0.01 3.45 0.03 6.91 0.03 10.4 0.01 1.5 0.02 2.99 0.03 4.49 0.01 2.15 0.01 4.29 0.02 6.44 0 1.29 0.01 2.59 0.01 3.92-0.11 2.96-0.11 2.96-1.11 3.96-2.33 0.37-4.66 0.7-7 1 0.01 1.36 0.01 1.36 0.02 2.74 0.01 3.34 0.03 6.68 0.03 10l0.03 4.35c0.01 2.07 0.01 4.15 0.02 6.23 0 1.25 0.01 2.5 0.01 3.79-0.11 2.87-0.11 2.87-1.11 3.87-2.33 0.04-4.67 0.04-7 0 0.01 1.18 0.01 2.35 0.02 3.56 0.01 4.35 0.03 8.7 0.03 13 0.01 1.88 0.02 3.77 0.03 5.65 0.01 2.71 0.01 5.41 0.02 8.11 0 0.85 0.01 1.7 0.01 2.57 0 2.02-0.05 4.04-0.11 6.06-1 1-1 1-4.56 1.06-1.14-0.02-2.27-0.04-3.44-0.06 0.01 1.04 0.01 1.04 0.02 2.1 0.02 3.11 0.03 6.22 0.04 9.34 0.01 1.09 0.02 2.17 0.03 3.3 0 1.03 0 2.07 0.01 3.13 0 0.96 0.01 1.92 0.01 2.91-0.11 2.22-0.11 2.22-1.11 3.22-2.33 0.04-4.67 0.04-7 0 0.01 0.93 0.01 1.87 0.02 2.83 0.01 3.45 0.03 6.91 0.03 10.4 0.01 1.5 0.02 2.99 0.03 4.49 0.01 2.15 0.01 4.29 0.02 6.44 0 1.29 0.01 2.59 0.01 3.92-0.11 2.96-0.11 2.96-1.11 3.96-2.33 0.37-4.66 0.7-7 1 0.01 1.36 0.01 1.36 0.02 2.74 0.01 3.34 0.03 6.68 0.03 10l0.03 4.35c0.01 2.07 0.01 4.15 0.02 6.23 0 1.25 0.01 2.5 0.01 3.79-0.11 2.87-0.11 2.87-1.11 3.87-2.33 0.04-4.67 0.04-7 0 0.01 1.18 0.01 2.35 0.02 3.56 0.01 4.35 0.03 8.7 0.03 13 0.01 1.88 0.02 3.77 0.03 5.65 0.01 2.71 0.01 5.41 0.02 8.11 0 0.85 0.01 1.7 0.01 2.57 0 2.02-0.05 4.04-0.11 6.06-1 1-1 1-4.56 1.06-1.14-0.02-2.27-0.04-3.44-0.06 0.01 1.04 0.01 1.04 0.02 2.1 0.02 3.11 0.03 6.22 0.04 9.34 0.01 1.09 0.02 2.17 0.03 3.3 0 1.03 0 2.07 0.01 3.13 0 0.96 0.01 1.92 0.01 2.91-0.11 2.22-0.11 2.22-1.11 3.22-2.33 0.37-4.66 0.7-7 1 0.01 1.36 0.01 1.36 0.02 2.74 0.01 3.34 0.03 6.68 0.03 10l0.03 4.35c0.01 2.07 0.01 4.15 0.02 6.23 0 1.25 0.01 2.5 0.01 3.79-0.11 2.87-0.11 2.87-1.11 3.87-2.33 0.37-4.66 0.7-7 1 0.01 1.36 0.01 1.36 0.02 2.74 0.01 3.34 0.03 6.68 0.03 10l0.03 4.35c0.01 2.07 0.01 4.15 0.02 6.23 0 1.25 0.01 2.5 0.01 3.79-0.11 2.87-0.11 2.87-1.11 3.87-2.33 0.04-4.67 0.04-7 0 0.01 1.18 0.01 2.35 0.02 3.56 0.01 4.35 0.03 8.7 0.03 13 0.01 1.88 0.02 3.77 0.03 5.65 0.01 2.71 0.01 5.41 0.02 8.11 0 0.85 0.01 1.7 0.01 2.57 0 2.02-0.05 4.04-0.11 6.06-1 1-1 1-4.56 1.06-1.14-0.02-2.27-0.04-3.44-0.06 0.01 1.04 0.01 1.04 0.02 2.1 0.02 3.11 0.03 6.22 0.04 9.34 0.01 1.09 0.02 2.17 0.03 3.3 0 1.03 0 2.07 0.01 3.13 0 0.96 0.01 1.92 0.01 2.91-0.11 2.22-0.11 2.22-1.11 3.22-2.33 0.37-4.66 0.7-7 1 0.01 1.36 0.01 1.36 0.02 2.74 0.01 3.34 0.03 6.68 0.03 10l0.03 4.35c0.01 2.07 0.01 4.15 0.02 6.23 0 1.25 0.01 2.5 0.01 3.79-0.11 2.87-0.11 2.87-1.11 3.87-2.33 0.37-4.66 0.7-7 1 0.01 1.36 0.01 1.36 0.02 2.74 0.01 3.34 0.03 6.68 0.03 10l0.03 4.35c0.01 2.07 0.01 4.15 0.02 6.23 0 1.25 0.01 2.5 0.01 3.79-0.11 2.87-0.11 2.87-1.11 3.87-2.33 0.04-4.67 0.04-7 0 0.01 1.18 0.01 2.35 0.02 3.56 0.01 4.35 0.03 8.7 0.03 13 0.01 1.88 0.02 3.77 0.03 5.65 0.01 2.71 0.01 5.41 0.02 8.11 0 0.85 0.01 1.7 0.01 2.57 0 2.02-0.05 4.04-0.11 6.06-1 1-1 1-4.56 1.06-1.14-0.02-2.27-0.04-3.44-0.06 0.01 1.04 0.01 1.04 0.02 2.1 0.02 3.11 0.03 6.22 0.04 9.34 0.01 1.09 0.02 2.17 0.03 3.3 0 1.03 0 2.07 0.01 3.13 0 0.96 0.01 1.92 0.01 2.91-0.11 2.22-0.11 2.22-1.11 3.22-2.33 0.04-4.67 0.04-7 0 0.01 1.4 0.01 1.4 0.02 2.83 0.01 3.45 0.03 6.91 0.03 10.4 0.01 1.5 0.02 2.99 0.03 4.49 0.01 2.15 0.01 4.29 0.02 6.44 0.01 1.94 0.01 1.94 0.01 3.92-0.11 2.96-0.11 2.96-1.11 3.96-2.33 0.37-4.66 0.7-7 1 0.01 0.9 0.01 1.81 0.02 2.74 0.01 3.34 0.03 6.68 0.03 10l0.03 4.35c0.01 2.07 0.01 4.15 0.02 6.23 0 1.25 0.01 2.5 0.01 3.79-0.11 2.87-0.11 2.87-1.11 3.87-2.33 0.04-4.67 0.04-7 0 0.01 1.18 0.01 2.35 0.02 3.56 0.01 4.35 0.03 8.7 0.03 13 0.01 1.88 0.02 3.77 0.03 5.65 0.01 2.71 0.01 5.41 0.02 8.11 0 0.85 0.01 1.7 0.01 2.57 0 2.02-0.05 4.04-0.11 6.06-1 1-1 1-4.56 1.06-1.14-0.02-2.27-0.04-3.44-0.06 0.01 0.69 0.01 1.38 0.02 2.1 0.02 3.11 0.03 6.22 0.04 9.34 0.01 1.09 0.02 2.17 0.03 3.3 0 1.03 0 2.07 0.01 3.13 0 0.96 0.01 1.92 0.01 2.91-0.11 2.22-0.11 2.22-1.11 3.22-2.33 0.04-4.67 0.04-7 0 0.01 1.4 0.01 1.4 0.02 2.83 0.01 3.45 0.03 6.91 0.03 10.4 0.01 1.5 0.02 2.99 0.03 4.49 0.01 2.15 0.01 4.29 0.02 6.44 0.01 1.94 0.01 1.94 0.01 3.92-0.11 2.96-0.11 2.96-1.11 3.96-2.33 0.37-4.66 0.7-7 1 0.01 0.9 0.01 1.81 0.02 2.74 0.01 3.34 0.03 6.68 0.03 10l0.03 4.35c0.01 2.07 0.01 4.15 0.02 6.23 0 1.25 0.01 2.5 0.01 3.79-0.11 2.87-0.11 2.87-1.11 3.87-2.33 0.04-4.67 0.04-7 0 0.01 1.18 0.01 2.35 0.02 3.56 0.01 4.35 0.03 8.7 0.03 13 0.01 1.88 0.02 3.77 0.03 5.65 0.01 2.71 0.01 5.41 0.02 8.11 0 0.85 0.01 1.7 0.01 2.57 0 2.02-0.05 4.04-0.11 6.06-1 1-1 1-4.56 1.06-1.14-0.02-2.27-0.04-3.44-0.06 0.01 0.69 0.01 1.38 0.02 2.1 0.02 3.11 0.03 6.22 0.04 9.34 0.01 1.09 0.02 2.17 0.03 3.3 0 1.03 0 2.07 0.01 3.13 0 0.96 0.01 1.92 0.01 2.91-0.11 2.22-0.11 2.22-1.11 3.22-2.33 0.04-4.67 0.04-7 0 0.01 1.4 0.01 1.4 0.02 2.83 0.01 3.45 0.03 6.91 0.03 10.4 0.01 1.5 0.02 2.99 0.03 4.49 0.01 2.15 0.01 4.29 0.02 6.44 0.01 1.94 0.01 1.94 0.01 3.92-0.11 2.96-0.11 2.96-1.11 3.96-2.33 0.37-4.66 0.7-7 1 0.01 0.9 0.01 1.81 0.02 2.74 0.01 3.34 0.03 6.68 0.03 10l0.03 4.35c0.01 2.07 0.01 4.15 0.02 6.23 0 1.25 0.01 2.5 0.01 3.79-0.11 2.87-0.11 2.87-1.11 3.87-2.33 0.04-4.67 0.04-7 0 0.01 1.18 0.01 2.35 0.02 3.56 0.01 4.35 0.03 8.7 0.03 13 0.01 1.88 0.02 3.77 0.03 5.65 0.01 2.71 0.01 5.41 0.02 8.11 0 0.85 0.01 1.7 0.01 2.57 0 2.02-0.05 4.04-0.11 6.06-1 1-1 1-4.56 1.06-1.14-0.02-2.27-0.04-3.44-0.06 0.01 0.69 0.01 1.38 0.02 2.1 0.02 3.11 0.03 6.22 0.04 9.34 0.01 1.09 0.02 2.17 0.03 3.3 0 1.03 0 2.07 0.01 3.13 0 0.96 0.01 1.92 0.01 2.91-0.11 2.22-0.11 2.22-1.11 3.22-2.33 0.37-4.66 0.7-7 1 0.01 0.9 0.01 1.81 0.02 2.74 0.01 3.34 0.03 6.68 0.03 10l0.03 4.35c0.01 2.07 0.01 4.15 0.02 6.23 0 1.25 0.01 2.5 0.01 3.79-0.11 2.87-0.11 2.87-1.11 3.87-2.33 0.37-4.66 0.7-7 1 0.01 0.9 0.01 1.81 0.02 2.74 0.01 3.34 0.03 6.68 0.03 10l0.03 4.35c0.01 2.07 0.01 4.15 0.02 6.23 0 1.25 0.01 2.5 0.01 3.79-0.11 2.87-0.11 2.87-1.11 3.87-2.33 0.04-4.67 0.04-7 0 0.01 1.18 0.01 2.35 0.02 3.56 0.01 4.35 0.03 8.7 0.03 13 0.01 1.88 0.02 3.77 0.03 5.65 0.01 2.71 0.01 5.41 0.02 8.11 0 0.85 0.01 1.7 0.01 2.57 0 2.02-0.05 4.04-0.11 6.06l-1 1h-7v23c-2.67 0.67-5.33 1.33-8 2 0.01 0.9 0.01 1.81 0.02 2.74 0.01 3.34 0.03 6.68 0.03 10l0.03 4.35c0.01 2.07 0.01 4.15 0.02 6.23 0 1.25 0.01 2.5 0.01 3.79-0.11 2.87-0.11 2.87-1.11 3.87-2.33 0.04-4.67 0.04-7 0 0.01 0.98 0.01 0.98 0.02 1.99 0.02 2.96 0.03 5.92 0.04 8.89 0.01 1.03 0.02 2.06 0.03 3.12 0 0.99 0 1.98 0.01 2.99 0 0.91 0.01 1.82 0.01 2.76-0.11 2.25-0.11 2.25-1.11 4.25h-7l-1 8h-24l-1-7-14-1c-0.31-1.67-0.31-1.67-0.62-3.38-0.46-1.19-0.91-2.39-1.38-3.62-0.99-0.33-1.98-0.66-3-1-0.99-0.33-1.98-0.66-3-1-1.38-3.62-1.38-3.62-2-7-1.18 0.06-1.18 0.06-2.38 0.12-2.62-0.12-2.62-0.12-4.62-2.12-0.62-2.62-0.62-2.62-1-5-0.95-0.21-1.9-0.41-2.88-0.62-1.03-0.46-2.06-0.91-3.12-1.38-0.67-2-1.33-4-2-6-0.99-0.33-1.98-0.66-3-1-0.99-0.33-1.98-0.66-3-1-1.38-3.12-1.38-3.12-2-6l-5-1v-2h-2l-1-5c-0.95-0.19-1.9-0.37-2.88-0.56-3.12-1.44-3.12-1.44-4.5-5.06-0.3-1.68-0.3-1.68-0.62-3.38-1.18 0.06-1.18 0.06-2.38 0.12-2.62-0.12-2.62-0.12-4.62-2.12-0.62-2.62-0.62-2.62-1-5-0.95-0.21-1.9-0.41-2.88-0.62-1.03-0.46-2.06-0.91-3.12-1.38-0.67-2-1.33-4-2-6-0.99-0.33-1.98-0.66-3-1-0.99-0.33-1.98-0.66-3-1-1.38-3.12-1.38-3.12-2-6l-5-1v-2h-2l-1-5c-0.95-0.21-1.9-0.41-2.88-0.62-1.03-0.46-2.06-0.91-3.12-1.38-0.67-2-1.33-4-2-6-0.99-0.33-1.98-0.66-3-1-0.99-0.33-1.98-0.66-3-1-0.67-2-1.33-4-2-6-0.99-0.33-1.98-0.66-3-1-0.99-0.33-1.98-0.66-3-1-0.67-2-1.33-4-2-6-0.99-0.33-1.98-0.66-3-1-0.99-0.33-1.98-0.66-3-1-0.67-2-1.33-4-2-6-0.99-0.33-1.98-0.66-3-1-0.99-0.33-1.98-0.66-3-1-0.67-2-1.33-4-2-6-0.99-0.33-1.98-0.66-3-1-0.99-0.33-1.98-0.66-3-1-0.67-2-1.33-4-2-6-0.99-0.33-1.98-0.66-3-1-0.99-0.33-1.98-0.66-3-1-0.67-2-1.33-4-2-6-0.99-0.33-1.98-0.66-3-1-0.99-0.33-1.98-0.66-3-1-0.67-2-1.33-4-2-6-0.99-0.33-1.98-0.66-3-1-0.99-0.33-1.98-0.66-3-1-0.67-2-1.33-4-2-6-0.99-0.33-1.98-0.66-3-1-0.99-0.33-1.98-0.66-3-1-0.67-2-1.33-4-2-6-0.99-0.33-1.98-0.66-3-1-0.99-0.33-1.98-0.66-3-1-0.67-2-1.33-4-2-6-0.99-0.33-1.98-0.66-3-1-0.99-0.33-1.98-0.66-3-1-0.67-2-1.33-4-2-6-0.99-0.33-1.98-0.66-3-1-0.99-0.33-1.98-0.66-3-1-0.67-2-1.33-4-2-6-0.99-0.33-1.98-0.66-3-1-0.99-0.33-1.98-0.66-3-1-0.67-2-1.33-4-2-6-0.99-0.33-1.98-0.66-3-1-0.99-0.33-1.98-0.66-3-1-0.67-2-1.33-4-2-6-0.99-0.33-1.98-0.66-3-1-0.99-0.33-1.98-0.66-3-1-0.67-2-1.33-4-2-6-0.99-0.33-1.98-0.66-3-1-0.99-0.33-1.98-0.66-3-1-0.67-2-1.33-4-2-6-0.99-0.33-1.98-0.66-3-1-0.99-0.33-1.98-0.66-3-1-0.67-2-1.33-4-2-6-0.99-0.33-1.98-0.66-3-1-0.99-0.33-1.98-0.66-3-1-0.67-2-1.33-4-2-6-0.99-0.33-1.98-0.66-3-1-0.99-0.33-1.98-0.66-3-1-0.67-2-1.33-4-2-6-0.99-0.33-1.98-0.66-3-1-0.99-0.33-1.98-0.66-3-1-0.67-2-1.33-4-2-6-0.99-0.33-1.98-0.66-3-1-0.99-0.33-1.98-0.66-3-1-0.67-2-1.33-4-2-6-0.99-0.33-1.98-0.66-3-1-0.99-0.33-1.98-0.66-3-1-0.67-2-1.33-4-2-6-0.99-0.33-1.98-0.66-3-1-0.99-0.33-1.98-0.66-3-1-0.67-2-1.33-4-2-6-0.99-0.33-1.98-0.66-3-1-0.99-0.33-1.98-0.66-3-1-0.67-2-1.33-4-2-6-0.99-0.33-1.98-0.66-3-1-0.99-0.33-1.98-0.66-3-1-0.67-2-1.33-4-2-6-0.99-0.33-1.98-0.66-3-1-0.99-0.33-1.98-0.66-3-1-0.67-2-1.33-4-2-6-0.99-0.33-1.98-0.66-3-1-0.99-0.33-1.98-0.66-3-1-0.67-2-1.33-4-2-6-0.99-0.33-1.98-0.66-3-1-0.99-0.33-1.98-0.66-3-1-0.67-2-1.33-4-2-6-0.99-0.33-1.98-0.66-3-1-0.99-0.33-1.98-0.66-3-1-0.67-2-1.33-4-2-6-0.99-0.33-1.98-0.66-3-1-0.99-0.33-1.98-0.66-3-1-0.67-2-1.33-4-2-6-0.99-0.33-1.98-0.66-3-1-0.99-0.33-1.98-0.66-3-1-0.67-2-1.33-4-2-6-0.99-0.33-1.98-0.66-3-1-0.99-0.33-1.98-0.66-3-1-0.67-2-1.33-4-2-6-0.99-0.33-1.98-0.66-3-1-0.99-0.33-1.98-0.66-3-1-0.67-2-1.33-4-2-6-0.99-0.33-1.98-0.66-3-1-0.99-0.33-1.98-0.66-3-1-0.67-2-1.33-4-2-6-0.99-0.33-1.98-0.66-3-1-0.99-0.33-1.98-0.66-3-1-0.67-2-1.33-4-2-6-0.99-0.33-1.98-0.66-3-1-0.99-0.33-1.98-0.66-3-1-0.67-2-1.33-4-2-6-0.99-0.33-1.98-0.66-3-1-0.99-0.33-1.98-0.66-3-1-1.38-3.13-1.38-3.13-2-6l-5-1v-2h-2l-1-5c-0.95-0.21-1.9-0.41-2.88-0.62-1.03-0.46-2.06-0.91-3.12-1.38l-2-6c-7.26-0.33-14.5-0.66-22-1v7c-1 1-1 1-4.56 1.06-1.14-0.02-2.27-0.04-3.44-0.06v7c-2.89 0.83-4.89 1-8 1 0.02 1.13 0.04 2.27 0.06 3.44-0.06 3.56-0.06 3.56-1.06 4.56-2.33 0.04-4.67 0.04-7 0v7c-2.76 0.6-5.16 1-8 1 0.01 1.07 0.02 2.14 0.04 3.25 0 1.39 0.01 2.79 0.02 4.19 0.01 0.7 0.02 1.41 0.03 2.14 0.01 1.81-0.04 3.61-0.09 5.42-1 1-1 1-4.56 1.06-1.14-0.02-2.27-0.04-3.44-0.06 0.02 1.13 0.04 2.27 0.06 3.44-0.06 3.56-0.06 3.56-1.06 4.56-2.33 0.04-4.67 0.04-7 0v7c-2.76 0.6-5.16 1-8 1 0.02 1.13 0.04 2.27 0.06 3.44-0.06 3.56-0.06 3.56-1.06 4.56-2.33 0.04-4.67 0.04-7 0 0.02 1.13 0.04 2.27 0.06 3.44-0.06 3.56-0.06 3.56-1.06 4.56-2.33 0.37-4.66 0.7-7 1v6c-2.71 1.35-5.01 1.07-8 1 0.02 1.13 0.04 2.27 0.06 3.44-0.06 3.56-0.06 3.56-1.06 4.56-2.33 0.04-4.67 0.04-7 0v7c-2.76 0.6-5.16 1-8 1 0.02 1.13 0.04 2.27 0.06 3.44-0.06 3.56-0.06 3.56-1.06 4.56h-7v15c-5 1-5 1-8 1 0.02 1.13 0.04 2.27 0.06 3.44-0.06 3.56-0.06 3.56-1.06 4.56-2.33 0.04-4.67 0.04-7 0 0.02 1.13 0.04 2.27 0.06 3.44-0.06 3.56-0.06 3.56-1.06 4.56-2.33 0.04-4.67 0.04-7 0 0.02 1.13 0.04 2.27 0.06 3.44-0.06 3.56-0.06 3.56-1.06 4.56-2.33 0.04-4.67 0.04-7 0 0.02 1.13 0.04 2.27 0.06 3.44-0.06 3.56-0.06 3.56-1.06 4.56-2.33 0.04-4.67 0.04-7 0 0.02 1.13 0.04 2.27 0.06 3.44-0.06 3.56-0.06 3.56-1.06 4.56-2.33 0.04-4.67 0.04-7 0 0.02 1.13 0.04 2.27 0.06 3.44-0.06 3.56-0.06 3.56-1.06 4.56-2.33 0.04-4.67 0.04-7 0 0.01 1.07 0.02 2.14 0.04 3.25 0 1.39 0.01 2.79 0.02 4.19 0.01 0.7 0.02 1.41 0.03 2.14 0.01 1.81-0.04 3.61-0.09 5.42-1 1-1 1-4.56 1.06-1.14-0.02-2.27-0.04-3.44-0.06 0.02 1.13 0.04 2.27 0.06 3.44-0.06 3.56-0.06 3.56-1.06 4.56-2.33 0.04-4.67 0.04-7 0 0.02 1.13 0.04 2.27 0.06 3.44-0.06 3.56-0.06 3.56-1.06 4.56-2.33 0.04-4.67 0.04-7 0 0.02 1.13 0.04 2.27 0.06 3.44-0.06 3.56-0.06 3.56-1.06 4.56-2.33 0.04-4.67 0.04-7 0v7c-5.75 1-5.75 1-8 1v7c-2.76 0.6-5.16 1-8 1 0.02 1.13 0.04 2.27 0.06 3.44-0.06 3.56-0.06 3.56-1.06 4.56-2.33 0.04-4.67 0.04-7 0v7c-2.89 0.83-4.89 1-8 1v15c-3 1-3 1-7 1-0.14 1.13-0.29 2.27-0.44 3.44-0.56 3.56-0.56 3.56-1.56 4.56-2.33 0.04-4.67 0.04-7 0 0.02 1.13 0.04 2.27 0.06 3.44-0.06 3.56-0.06 3.56-1.06 4.56-2.33 0.04-4.67 0.04-7 0v7c-2.76 0.6-5.16 1-8 1 0.02 1.13 0.04 2.27 0.06 3.44-0.06 3.56-0.06 3.56-1.06 4.56-2.33 0.04-4.67 0.04-7 0 0.02 1.13 0.04 2.27 0.06 3.44-0.06 3.56-0.06 3.56-1.06 4.56-2.33 0.04-4.67 0.04-7 0 0.02 1.13 0.04 2.27 0.06 3.44-0.06 3.56-0.06 3.56-1.06 4.56-2.79 0.11-5.55 0.16-8.34 0.17-0.84 0-1.67 0-2.54 0.01-1.77 0-3.55 0.01-5.32 0.01-2.72 0-5.44 0.02-8.17 0.03-1.72 0.01-3.44 0.01-5.16 0.01-1.22 0.01-1.22 0.01-2.48 0.02-5.76-0.02-5.76-0.02-7.99-2.25-0.25-2.32-0.25-2.32-0.25-5.28-0.01-1.12-0.02-2.23-0.02-3.39 0-1.23 0.01-2.46 0.01-3.73 0-1.95 0-1.95-0.01-3.93-0.01-3.55 0-7.11 0-10.7 0.01-3.72 0-7.44 0-11.2-0.01-6.24 0-12.5 0.01-18.7 0.01-7.23 0.01-14.4 0-21.7-0.01-6.19-0.01-12.4-0.01-18.6v-11.1c-0.01-4.12 0-8.25 0.01-12.4 0-1.23-0.01-2.46-0.01-3.73 0-1.12 0.01-2.24 0.02-3.39v-2.96c0.25-2.32 0.25-2.32 2.25-4.32 3.12-0.12 3.12-0.12 6 0 0-1.07-0.01-2.15-0.01-3.25-0.04-10.1-0.07-20.2-0.09-30.3-0.01-5.19-0.03-10.4-0.05-15.6-0.02-5-0.03-10-0.04-15 0-1.92-0.01-3.83-0.02-5.74-0.02-2.67-0.02-5.35-0.02-8.02 0-0.8-0.01-1.59-0.02-2.41 0.02-5.48 0.02-5.48 2.25-7.71 3.12-0.12 3.12-0.12 6 0 0-0.87-0.01-1.75-0.01-2.64-0.04-8.21-0.07-16.4-0.09-24.6-0.01-4.22-0.03-8.44-0.05-12.7-0.02-4.07-0.03-8.15-0.04-12.2 0-1.55-0.01-3.11-0.02-4.66-0.02-2.18-0.02-4.35-0.02-6.53 0-1.24-0.01-2.48-0.01-3.75 0.24-2.9 0.24-2.9 2.24-4.9 3.12-0.12 3.12-0.12 6 0 0-0.97-0.01-1.95-0.01-2.95-0.04-9.15-0.07-18.3-0.09-27.5-0.01-4.7-0.03-9.41-0.05-14.1-0.02-4.54-0.03-9.08-0.04-13.6 0-1.73-0.01-3.47-0.02-5.2-0.02-2.43-0.02-4.85-0.02-7.27 0-0.72-0.01-1.45-0.02-2.19 0.02-4.97 0.02-4.97 2.25-7.2 3.12-0.12 3.12-0.12 6 0 0.02-10.8 0.04-21.5 0.05-32.3 0.01-5 0.01-10 0.03-15 0.01-4.83 0.01-9.65 0.01-14.5 0.01-1.85 0.01-3.69 0.02-5.53v-7.73c0.01-0.77 0.01-1.53 0.01-2.32 0-3.15-0.11-5.62-1.12-8.64-0.92-0.05-1.83-0.1-2.77-0.15-1.19-0.07-2.38-0.15-3.61-0.23-1.77-0.1-1.77-0.1-3.58-0.21-3.04-0.41-3.04-0.41-5.04-2.41-0.62-2.63-0.62-2.63-1-5-0.63-0.02-1.25-0.04-1.9-0.06-2.82-0.1-5.65-0.2-8.48-0.32-0.98-0.03-1.96-0.06-2.98-0.09-0.94-0.04-1.88-0.08-2.85-0.12-1.3-0.04-1.3-0.04-2.64-0.09-2.15-0.32-2.15-0.32-4.15-2.32-0.62-2.62-0.62-2.62-1-5-0.63-0.02-1.25-0.04-1.9-0.06-2.82-0.1-5.65-0.2-8.48-0.32-0.98-0.03-1.96-0.06-2.98-0.09-1.41-0.06-1.41-0.06-2.85-0.12-0.87-0.03-1.74-0.06-2.64-0.09-2.15-0.32-2.15-0.32-4.15-2.32-0.62-2.63-0.62-2.63-1-5-0.63-0.02-1.25-0.04-1.9-0.06-2.82-0.1-5.65-0.2-8.48-0.32-0.98-0.03-1.96-0.06-2.98-0.09-1.41-0.06-1.41-0.06-2.85-0.12-0.87-0.03-1.74-0.06-2.64-0.09-2.15-0.32-2.15-0.32-4.15-2.32-0.62-2.63-0.62-2.63-1-5-0.63-0.02-1.25-0.04-1.9-0.06-2.82-0.1-5.65-0.2-8.48-0.32-0.98-0.03-1.96-0.06-2.98-0.09-1.41-0.06-1.41-0.06-2.85-0.12-0.87-0.03-1.74-0.06-2.64-0.09-2.15-0.32-2.15-0.32-4.15-2.32-0.62-2.62-0.62-2.62-1-5-0.63-0.02-1.25-0.04-1.9-0.06-2.82-0.1-5.65-0.2-8.48-0.32-0.98-0.03-1.96-0.06-2.98-0.09-1.41-0.06-1.41-0.06-2.85-0.12-0.87-0.03-1.74-0.06-2.64-0.09-2.15-0.32-2.15-0.32-4.15-2.32-0.62-2.62-0.62-2.62-1-5-0.92-0.05-1.83-0.1-2.77-0.15-1.19-0.07-2.38-0.15-3.61-0.23-1.77-0.1-1.77-0.1-3.58-0.21-3.04-0.41-3.04-0.41-5.04-2.41l-1-5c-9.9-0.33-19.8-0.66-30-1l-2-7c-0.63-0.02-1.25-0.04-1.9-0.06-2.82-0.1-5.65-0.2-8.48-0.32-0.98-0.03-1.96-0.06-2.98-0.09-0.94-0.04-1.88-0.08-2.85-0.12-0.87-0.03-1.74-0.06-2.64-0.09-2.15-0.32-2.15-0.32-4.15-2.32-0.62-2.62-0.62-2.62-1-5-0.63-0.02-1.25-0.04-1.9-0.06-2.82-0.1-5.65-0.2-8.48-0.32-0.98-0.03-1.96-0.06-2.98-0.09-0.94-0.04-1.88-0.08-2.85-0.12-0.87-0.03-1.74-0.06-2.64-0.09-2.15-0.32-2.15-0.32-4.15-2.32-0.62-2.62-0.62-2.62-1-5-0.63-0.02-1.25-0.04-1.9-0.06-2.82-0.1-5.65-0.2-8.48-0.32-0.98-0.03-1.96-0.06-2.98-0.09-0.94-0.04-1.88-0.08-2.85-0.12-0.87-0.03-1.74-0.06-2.64-0.09-2.15-0.32-2.15-0.32-4.15-2.32-0.62-2.62-0.62-2.62-1-5-0.63-0.02-1.25-0.04-1.9-0.06-2.82-0.1-5.65-0.2-8.48-0.32-0.98-0.03-1.96-0.06-2.98-0.09-0.94-0.04-1.88-0.08-2.85-0.12-0.87-0.03-1.74-0.06-2.64-0.09-2.15-0.32-2.15-0.32-4.15-2.32-0.62-2.62-0.62-2.62-1-5-0.63-0.02-1.25-0.04-1.9-0.06-2.82-0.1-5.65-0.2-8.48-0.32-0.98-0.03-1.96-0.06-2.98-0.09-0.94-0.04-1.88-0.08-2.85-0.12-0.87-0.03-1.74-0.06-2.64-0.09-2.15-0.32-2.15-0.32-4.15-2.32-0.62-2.62-0.62-2.62-1-5-0.63-0.02-1.25-0.04-1.9-0.06-2.82-0.1-5.65-0.2-8.48-0.32-0.98-0.03-1.96-0.06-2.98-0.09-0.94-0.04-1.88-0.08-2.85-0.12-0.87-0.03-1.74-0.06-2.64-0.09-2.15-0.32-2.15-0.32-4.15-2.32-0.62-2.63-0.62-2.63-1-5-0.63-0.02-1.25-0.04-1.9-0.06-2.82-0.1-5.65-0.2-8.48-0.32-0.98-0.03-1.96-0.06-2.98-0.09-0.94-0.04-1.88-0.08-2.85-0.12-0.87-0.03-1.74-0.06-2.64-0.09-2.15-0.32-2.15-0.32-4.15-2.32-0.62-2.62-0.62-2.62-1-5-0.63-0.02-1.25-0.04-1.9-0.06-2.82-0.1-5.65-0.2-8.48-0.32-0.98-0.03-1.96-0.06-2.98-0.09-0.94-0.04-1.88-0.08-2.85-0.12-0.87-0.03-1.74-0.06-2.64-0.09-2.15-0.32-2.15-0.32-4.15-2.32-0.62-2.62-0.62-2.62-1-5-0.63-0.02-1.25-0.04-1.9-0.06-2.82-0.1-5.65-0.2-8.48-0.32-0.98-0.03-1.96-0.06-2.98-0.09-0.94-0.04-1.88-0.08-2.85-0.12-0.87-0.03-1.74-0.06-2.64-0.09-2.15-0.32-2.15-0.32-4.15-2.32-0.62-2.62-0.62-2.62-1-5-0.63-0.02-1.25-0.04-1.9-0.06-2.82-0.1-5.65-0.2-8.48-0.32-0.98-0.03-1.96-0.06-2.98-0.09-0.94-0.04-1.88-0.08-2.85-0.12-0.87-0.03-1.74-0.06-2.64-0.09-2.15-0.32-2.15-0.32-4.15-2.32-0.49-2.47-0.49-2.47-1-5l-14-1-2-7c-3.5-0.56-6.83-1-10.4-1h-2.62c-1-1-1-1-1.11-4.05 0-1.35 0-2.7 0.01-4.05 0-0.71 0.01-1.42 0.01-2.15 0-2.27 0.01-4.54 0.03-6.81 0-1.54 0.01-3.08 0.01-4.61 0.01-3.78 0.03-7.55 0.05-11.3h5l1-7c2.97-0.33 5.94-0.66 9-1v-6c3.48-2.14 6.21-2.21 10.2-2.12 1.08 0.01 2.16 0.03 3.27 0.05 1.23 0.03 1.23 0.03 2.48 0.07-0.04-0.95-0.08-1.9-0.12-2.88 0.12-3.12 0.12-3.12 2.12-5.12 3.04-0.2 3.04-0.2 6.62-0.12 1.19 0.01 2.38 0.03 3.61 0.05 1.37 0.03 1.37 0.03 2.77 0.07 0.14-1.13 0.29-2.27 0.44-3.44 0.56-3.56 0.56-3.56 1.56-4.56 2.53-0.07 5.03-0.09 7.56-0.06 1.07 0 1.07 0 2.16 0.01 1.76 0.01 3.52 0.03 5.28 0.05-0.04-0.95-0.08-1.9-0.12-2.88 0.12-3.12 0.12-3.12 2.12-5.12 3.26-0.2 3.26-0.2 7.12-0.12 1.29 0.01 2.57 0.03 3.89 0.05 1.48 0.03 1.48 0.03 2.99 0.07-0.04-0.95-0.08-1.9-0.12-2.88 0.12-3.12 0.12-3.12 2.12-5.12 3.26-0.2 3.26-0.2 7.12-0.12 1.29 0.01 2.57 0.03 3.89 0.05 1.48 0.03 1.48 0.03 2.99 0.07-0.04-0.95-0.08-1.9-0.12-2.88 0.12-3.12 0.12-3.12 2.12-5.12 3.26-0.2 3.26-0.2 7.12-0.12 1.29 0.01 2.57 0.03 3.89 0.05 1.48 0.03 1.48 0.03 2.99 0.07-0.04-0.95-0.08-1.9-0.12-2.88 0.12-3.12 0.12-3.12 2.12-5.12 3.26-0.2 3.26-0.2 7.12-0.12 1.29 0.01 2.57 0.03 3.89 0.05 1.48 0.03 1.48 0.03 2.99 0.07-0.04-0.95-0.08-1.9-0.12-2.88 0.12-3.12 0.12-3.12 2.12-5.12 3.12-0.12 3.12-0.12 6 0-0.04-0.95-0.08-1.9-0.12-2.88 0.12-3.12 0.12-3.12 2.12-5.12 3.26-0.2 3.26-0.2 7.12-0.12 1.29 0.01 2.57 0.03 3.89 0.05 1.48 0.03 1.48 0.03 2.99 0.07-0.04-0.95-0.08-1.9-0.12-2.88 0.12-3.12 0.12-3.12 2.12-5.12 3.26-0.2 3.26-0.2 7.12-0.12 1.29 0.01 2.57 0.03 3.89 0.05 1.48 0.03 1.48 0.03 2.99 0.07-0.04-0.95-0.08-1.9-0.12-2.88 0.12-3.12 0.12-3.12 2.12-5.12 3.26-0.2 3.26-0.2 7.12-0.12 1.29 0.01 2.57 0.03 3.89 0.05 1.48 0.03 1.48 0.03 2.99 0.07-0.04-0.95-0.08-1.9-0.12-2.88 0.12-3.12 0.12-3.12 2.12-5.12 3.26-0.2 3.26-0.2 7.12-0.12 1.29 0.01 2.57 0.03 3.89 0.05 1.48 0.03 1.48 0.03 2.99 0.07-0.04-0.95-0.08-1.9-0.12-2.88 0.12-3.12 0.12-3.12 2.12-5.12 3.26-0.2 3.26-0.2 7.12-0.12 1.29 0.01 2.57 0.03 3.89 0.05 1.48 0.03 1.48 0.03 2.99 0.07-0.04-0.95-0.08-1.9-0.12-2.88 0.12-3.12 0.12-3.12 2.12-5.12 3.12-0.12 3.12-0.12 6 0-0.04-0.95-0.08-1.9-0.12-2.88 0.12-3.12 0.12-3.12 2.12-5.12 3.26-0.2 3.26-0.2 7.12-0.12 1.29 0.01 2.57 0.03 3.89 0.05 1.48 0.03 1.48 0.03 2.99 0.07-0.04-0.95-0.08-1.9-0.12-2.88 0.12-3.12 0.12-3.12 2.12-5.12 3.26-0.2 3.26-0.2 7.12-0.12 1.29 0.01 2.57 0.03 3.89 0.05 1.48 0.03 1.48 0.03 2.99 0.07-0.04-0.95-0.08-1.9-0.12-2.88 0.12-3.12 0.12-3.12 2.12-5.12 3.26-0.2 3.26-0.2 7.12-0.12 1.29 0.01 2.57 0.03 3.89 0.05 1.48 0.03 1.48 0.03 2.99 0.07-0.06-1.42-0.06-1.42-0.12-2.88 0.12-3.12 0.12-3.12 2.12-5.12 3.26-0.2 3.26-0.2 7.12-0.12 1.29 0.01 2.57 0.03 3.89 0.05 1.48 0.03 1.48 0.03 2.99 0.07-0.06-1.42-0.06-1.42-0.12-2.88 0.12-3.12 0.12-3.12 2.12-5.12 3.26-0.2 3.26-0.2 7.12-0.12 1.29 0.01 2.57 0.03 3.89 0.05 1.48 0.03 1.48 0.03 2.99 0.07-0.06-1.42-0.06-1.42-0.12-2.88 0.12-3.12 0.12-3.12 2.12-5.12 3.12-0.12 3.12-0.12 6 0-0.06-1.42-0.06-1.42-0.12-2.88 0.12-3.12 0.12-3.12 2.12-5.12 3.26-0.2 3.26-0.2 7.12-0.12 1.29 0.01 2.57 0.03 3.89 0.05 1.48 0.03 1.48 0.03 2.99 0.07-0.06-1.42-0.06-1.42-0.12-2.88 0.12-3.12 0.12-3.12 2.12-5.12 3.26-0.2 3.26-0.2 7.12-0.12 1.29 0.01 2.57 0.03 3.89 0.05 1.48 0.03 1.48 0.03 2.99 0.07-0.06-1.42-0.06-1.42-0.12-2.88 0.12-3.12 0.12-3.12 2.12-5.12 3.26-0.2 3.26-0.2 7.12-0.12 1.29 0.01 2.57 0.03 3.89 0.05 1.48 0.03 1.48 0.03 2.99 0.07-0.06-1.42-0.06-1.42-0.12-2.88 0.12-3.12 0.12-3.12 2.12-5.12 3.26-0.2 3.26-0.2 7.12-0.12 1.29 0.01 2.57 0.03 3.89 0.05 1.48 0.03 1.48 0.03 2.99 0.07-0.06-1.42-0.06-1.42-0.12-2.88 0.12-3.12 0.12-3.12 2.12-5.12 3.26-0.2 3.26-0.2 7.12-0.12 1.29 0.01 2.57 0.03 3.89 0.05 1.48 0.03 1.48 0.03 2.99 0.07-0.06-1.42-0.06-1.42-0.12-2.88 0.12-3.12 0.12-3.12 2.12-5.12 3.12-0.12 3.12-0.12 6 0-0.06-1.42-0.06-1.42-0.12-2.88 0.12-3.12 0.12-3.12 2.12-5.12 3.26-0.2 3.26-0.2 7.12-0.12 1.29 0.01 2.57 0.03 3.89 0.05 1.48 0.03 1.48 0.03 2.99 0.07-0.06-1.42-0.06-1.42-0.12-2.88 0.12-3.12 0.12-3.12 2.12-5.12 3.26-0.2 3.26-0.2 7.12-0.12 1.29 0.01 2.57 0.03 3.89 0.05 1.48 0.03 1.48 0.03 2.99 0.07-0.06-1.42-0.06-1.42-0.12-2.88 0.12-3.12 0.12-3.12 2.12-5.12 3.26-0.2 3.26-0.2 7.12-0.12 1.29 0.01 2.57 0.03 3.89 0.05 1.48 0.03 1.48 0.03 2.99 0.07-0.06-1.42-0.06-1.42-0.12-2.88 0.12-3.12 0.12-3.12 2.12-5.12 3.26-0.2 3.26-0.2 7.12-0.12 1.29 0.01 2.57 0.03 3.89 0.05 1.48 0.03 1.48 0.03 2.99 0.07-0.06-1.42-0.06-1.42-0.12-2.88 0.12-3.12 0.12-3.12 2.12-5.12 3.26-0.2 3.26-0.2 7.12-0.12 1.29 0.01 2.57 0.03 3.89 0.05 1.48 0.03 1.48 0.03 2.99 0.07-0.06-1.42-0.06-1.42-0.12-2.88 0.12-3.12 0.12-3.12 2.12-5.12 3.12-0.12 3.12-0.12 6 0-0.06-1.42-0.06-1.42-0.12-2.88 0.12-3.12 0.12-3.12 2.12-5.12 3.26-0.2 3.26-0.2 7.12-0.12 1.29 0.01 2.57 0.03 3.89 0.05 1.48 0.03 1.48 0.03 2.99 0.07-0.06-1.42-0.06-1.42-0.12-2.88 0.12-3.12 0.12-3.12 2.12-5.12 3.26-0.2 3.26-0.2 7.12-0.12 1.29 0.01 2.57 0.03 3.89 0.05 1.48 0.03 1.48 0.03 2.99 0.07-0.06-1.42-0.06-1.42-0.12-2.88 0.12-3.12 0.12-3.12 2.12-5.12 3.26-0.2 3.26-0.2 7.12-0.12 1.29 0.01 2.57 0.03 3.89 0.05 1.48 0.03 1.48 0.03 2.99 0.07-0.06-1.42-0.06-1.42-0.12-2.88 0.12-3.12 0.12-3.12 2.12-5.12 3.26-0.2 3.26-0.2 7.12-0.12 1.29 0.01 2.57 0.03 3.89 0.05 1.48 0.03 1.48 0.03 2.99 0.07-0.06-1.42-0.06-1.42-0.12-2.88 0.12-3.12 0.12-3.12 2.12-5.12 3.26-0.2 3.26-0.2 7.12-0.12 1.29 0.01 2.57 0.03 3.89 0.05 1.48 0.03 1.48 0.03 2.99 0.07-0.06-1.42-0.06-1.42-0.12-2.88 0.12-3.12 0.12-3.12 2.12-5.12 3.13-0.12 3.13-0.12 6 0-0.06-1.42-0.06-1.42-0.12-2.88 0.12-3.12 0.12-3.12 2.12-5.12 3.26-0.2 3.26-0.2 7.12-0.12 1.29 0.01 2.57 0.03 3.89 0.05 1.48 0.03 1.48 0.03 2.99 0.07-0.06-1.42-0.06-1.42-0.12-2.88 0.12-3.12 0.12-3.12 2.12-5.12 3.26-0.2 3.26-0.2 7.12-0.12 1.29 0.01 2.57 0.03 3.89 0.05 1.48 0.03 1.48 0.03 2.99 0.07-0.06-1.42-0.06-1.42-0.12-2.88 0.12-3.12 0.12-3.12 2.12-5.12 3.26-0.2 3.26-0.2 7.12-0.12 1.29 0.01 2.57 0.03 3.89 0.05 1.48 0.03 1.48 0.03 2.99 0.07-0.04-0.95-0.08-1.9-0.12-2.88 0.12-3.12 0.12-3.12 2.12-5.12 3.26-0.2 3.26-0.2 7.12-0.12 1.29 0.01 2.57 0.03 3.89 0.05 1.48 0.03 1.48 0.03 2.99 0.07-0.04-0.95-0.08-1.9-0.12-2.88 0.12-3.12 0.12-3.12 2.12-5.12 3.26-0.2 3.26-0.2 7.12-0.12 1.29 0.01 2.57 0.03 3.89 0.05 1.48 0.03 1.48 0.03 2.99 0.07-0.04-0.95-0.08-1.9-0.12-2.88 0.12-3.12 0.12-3.12 2.12-5.12 3.26-0.2 3.26-0.2 7.12-0.12 1.29 0.01 2.57 0.03 3.89 0.05 1.48 0.03 1.48 0.03 2.99 0.07-0.04-0.95-0.08-1.9-0.12-2.88 0.12-3.12 0.12-3.12 2.12-5.12 3.13-0.12 3.13-0.12 6 0-0.04-0.95-0.08-1.9-0.12-2.88 0.12-3.12 0.12-3.12 2.12-5.12 3.26-0.2 3.26-0.2 7.12-0.12 1.29 0.01 2.57 0.03 3.89 0.05 1.48 0.03 1.48 0.03 2.99 0.07-0.04-0.95-0.08-1.9-0.12-2.88 0.12-3.12 0.12-3.12 2.12-5.12 3.26-0.2 3.26-0.2 7.12-0.12 1.29 0.01 2.57 0.03 3.89 0.05 1.48 0.03 1.48 0.03 2.99 0.07-0.04-0.95-0.08-1.9-0.12-2.88 0.12-3.12 0.12-3.12 2.12-5.12 3.26-0.2 3.26-0.2 7.12-0.12 1.29 0.01 2.57 0.03 3.89 0.05 1.48 0.03 1.48 0.03 2.99 0.07-0.04-0.95-0.08-1.9-0.12-2.88 0.12-3.12 0.12-3.12 2.12-5.12 3.26-0.2 3.26-0.2 7.12-0.12 1.29 0.01 2.57 0.03 3.89 0.05 1.48 0.03 1.48 0.03 2.99 0.07-0.04-0.95-0.08-1.9-0.12-2.88 0.12-3.12 0.12-3.12 2.12-5.12 3.26-0.2 3.26-0.2 7.12-0.12 1.29 0.01 2.57 0.03 3.89 0.05 1.48 0.03 1.48 0.03 2.99 0.07-0.04-0.95-0.08-1.9-0.12-2.88 0.12-3.12 0.12-3.12 2.12-5.12 3.26-0.2 3.26-0.2 7.12-0.12 1.29 0.01 2.57 0.03 3.89 0.05 1.48 0.03 1.48 0.03 2.99 0.07-0.04-0.95-0.08-1.9-0.12-2.88 0.12-3.12 0.12-3.12 2.12-5.12 3.12-0.12 3.12-0.12 6 0-0.04-0.95-0.08-1.9-0.12-2.88 0.12-3.12 0.12-3.12 2.12-5.12 3.26-0.2 3.26-0.2 7.12-0.12 1.29 0.01 2.57 0.03 3.89 0.05 1.48 0.03 1.48 0.03 2.99 0.07-0.04-0.95-0.08-1.9-0.12-2.88 0.12-3.12 0.12-3.12 2.12-5.12 3.26-0.2 3.26-0.2 7.12-0.12 1.29 0.01 2.57 0.03 3.89 0.05 1.48 0.03 1.48 0.03 2.99 0.07-0.04-0.95-0.08-1.9-0.12-2.88 0.12-3.12 0.12-3.12 2.12-5.12 3.26-0.2 3.26-0.2 7.12-0.12 1.29 0.01 2.57 0.03 3.89 0.05 1.48 0.03 1.48 0.03 2.99 0.07-0.04-0.95-0.08-1.9-0.12-2.88 0.12-3.12 0.12-3.12 2.12-5.12 3.26-0.2 3.26-0.2 7.12-0.12 1.29 0.01 2.57 0.03 3.89 0.05 1.48 0.03 1.48 0.03 2.99 0.07-0.04-0.95-0.08-1.9-0.12-2.88 0.12-3.12 0.12-3.12 2.12-5.12 3.12-0.12 3.12-0.12 6 0-0.04-0.95-0.08-1.9-0.12-2.88 0.12-3.12 0.12-3.12 2.12-5.12 3.26-0.2 3.26-0.2 7.12-0.12 1.29 0.01 2.57 0.03 3.89 0.05 1.48 0.03 1.48 0.03 2.99 0.07-0.04-0.95-0.08-1.9-0.12-2.88 0.12-3.12 0.12-3.12 2.12-5.12 3.26-0.2 3.26-0.2 7.12-0.12 1.29 0.01 2.57 0.03 3.89 0.05 1.48 0.03 1.48 0.03 2.99 0.07-0.04-0.95-0.08-1.9-0.12-2.88 0.12-3.12 0.12-3.12 2.12-5.12 3.26-0.2 3.26-0.2 7.12-0.12 1.29 0.01 2.57 0.03 3.89 0.05 1.48 0.03 1.48 0.03 2.99 0.07-0.04-0.95-0.08-1.9-0.12-2.88 0.12-3.12 0.12-3.12 2.12-5.12 3.26-0.2 3.26-0.2 7.12-0.12 1.29 0.01 2.57 0.03 3.89 0.05 1.48 0.03 1.48 0.03 2.99 0.07-0.04-0.95-0.08-1.9-0.12-2.88 0.12-3.12 0.12-3.12 2.12-5.12 3.26-0.2 3.26-0.2 7.12-0.12 1.29 0.01 2.57 0.03 3.89 0.05 1.48 0.03 1.48 0.03 2.99 0.07-0.04-0.95-0.08-1.9-0.12-2.88 0.12-3.12 0.12-3.12 2.12-5.12 3.26-0.2 3.26-0.2 7.12-0.12 1.29 0.01 2.57 0.03 3.89 0.05 1.48 0.03 1.48 0.03 2.99 0.07-0.04-0.95-0.08-1.9-0.12-2.88 0.12-3.12 0.12-3.12 2.12-5.12 3.26-0.2 3.26-0.2 7.12-0.12 1.29 0.01 2.57 0.03 3.89 0.05 1.48 0.03 1.48 0.03 2.99 0.07-0.04-0.95-0.08-1.9-0.12-2.88 0.12-3.12 0.12-3.12 2.12-5.12 3.12-0.12 3.12-0.12 6 0-0.04-0.95-0.08-1.9-0.12-2.88 0.12-3.12 0.12-3.12 2.12-5.12 3.26-0.2 3.26-0.2 7.12-0.12 1.29 0.01 2.57 0.03 3.89 0.05 1.48 0.03 1.48 0.03 2.99 0.07-0.04-0.95-0.08-1.9-0.12-2.88 0.12-3.12 0.12-3.12 2.12-5.12 3.26-0.2 3.26-0.2 7.12-0.12 1.29 0.01 2.57 0.03 3.89 0.05 1.48 0.03 1.48 0.03 2.99 0.07-0.04-0.95-0.08-1.9-0.12-2.88 0.12-3.12 0.12-3.12 2.12-5.12 3.26-0.2 3.26-0.2 7.12-0.12 1.29 0.01 2.57 0.03 3.89 0.05 1.48 0.03 1.48 0.03 2.99 0.07-0.04-0.95-0.08-1.9-0.12-2.88 0.12-3.12 0.12-3.12 2.12-5.12 3.26-0.2 3.26-0.2 7.12-0.12 1.29 0.01 2.57 0.03 3.89 0.05 1.48 0.03 1.48 0.03 2.99 0.07-0.04-0.95-0.08-1.9-0.12-2.88 0.12-3.12 0.12-3.12 2.12-5.12 3.26-0.2 3.26-0.2 7.12-0.12 1.29 0.01 2.57 0.03 3.89 0.05 1.48 0.03 1.48 0.03 2.99 0.07-0.04-0.95-0.08-1.9-0.12-2.88 0.12-3.12 0.12-3.12 2.12-5.12 3.26-0.2 3.26-0.2 7.12-0.12 1.29 0.01 2.57 0.03 3.89 0.05 1.48 0.03 1.48 0.03 2.99 0.07-0.04-0.95-0.08-1.9-0.12-2.88 0.12-3.12 0.12-3.12 2.12-5.12 3.12-0.12 3.12-0.12 6 0-0.04-0.95-0.08-1.9-0.12-2.88 0.12-3.12 0.12-3.12 2.12-5.12 3.26-0.2 3.26-0.2 7.12-0.12 1.29 0.01 2.57 0.03 3.89 0.05 0.99 0.02 1.97 0.05 2.99 0.07-0.06-1.42-0.06-1.42-0.12-2.88 0.12-3.12 0.12-3.12 2.12-5.12 3.26-0.2 3.26-0.2 7.12-0.12 1.29 0.01 2.57 0.03 3.89 0.05 0.99 0.02 1.97 0.05 2.99 0.07-0.06-1.42-0.06-1.42-0.12-2.88 0.12-3.12 0.12-3.12 2.12-5.12 3.26-0.2 3.26-0.2 7.12-0.12 1.29 0.01 2.57 0.03 3.89 0.05 0.99 0.02 1.97 0.05 2.99 0.07-0.06-1.42-0.06-1.42-0.12-2.88 0.12-3.12 0.12-3.12 2.12-5.12 3.26-0.2 3.26-0.2 7.12-0.12 1.29 0.01 2.57 0.03 3.89 0.05 0.99 0.02 1.97 0.05 2.99 0.07-0.06-1.42-0.06-1.42-0.12-2.88 0.12-3.12 0.12-3.12 2.12-5.12 3.26-0.2 3.26-0.2 7.12-0.12 1.29 0.01 2.57 0.03 3.89 0.05 0.99 0.02 1.97 0.05 2.99 0.07-0.06-1.42-0.06-1.42-0.12-2.88 0.12-3.12 0.12-3.12 2.12-5.12 3.13-0.12 3.13-0.12 6 0-0.06-1.42-0.06-1.42-0.12-2.88 0.12-3.12 0.12-3.12 2.12-5.12 3.26-0.2 3.26-0.2 7.12-0.12 1.29 0.01 2.57 0.03 3.89 0.05 0.99 0.02 1.97 0.05 2.99 0.07-0.06-1.42-0.06-1.42-0.12-2.88 0.12-3.12 0.12-3.12 2.12-5.12 3.26-0.2 3.26-0.2 7.12-0.12 1.29 0.01 2.57 0.03 3.89 0.05 0.99 0.02 1.97 0.05 2.99 0.07-0.06-1.42-0.06-1.42-0.12-2.88 0.12-3.12 0.12-3.12 2.12-5.12 3.26-0.2 3.26-0.2 7.12-0.12 1.29 0.01 2.57 0.03 3.89 0.05 0.99 0.02 1.97 0.05 2.99 0.07-0.06-1.42-0.06-1.42-0.12-2.88 0.12-3.12 0.12-3.12 2.12-5.12 3.26-0.2 3.26-0.2 7.12-0.12 1.29 0.01 2.57 0.03 3.89 0.05 0.99 0.02 1.97 0.05 2.99 0.07-0.06-1.42-0.06-1.42-0.12-2.88 0.12-3.12 0.12-3.12 2.12-5.12 3.26-0.2 3.26-0.2 7.12-0.12 1.29 0.01 2.57 0.03 3.89 0.05 0.99 0.02 1.97 0.05 2.99 0.07-0.06-1.42-0.06-1.42-0.12-2.88 0.12-3.12 0.12-3.12 2.12-5.12 3.26-0.2 3.26-0.2 7.12-0.12 1.29 0.01 2.57 0.03 3.89 0.05 0.99 0.02 1.97 0.05 2.99 0.07-0.06-1.42-0.06-1.42-0.12-2.88 0.12-3.12 0.12-3.12 2.12-5.12 3.13-0.12 3.13-0.12 6 0-0.06-1.42-0.06-1.42-0.12-2.88 0.12-3.12 0.12-3.12 2.12-5.12 3.26-0.2 3.26-0.2 7.12-0.12 1.29 0.01 2.57 0.03 3.89 0.05 0.99 0.02 1.97 0.05 2.99 0.07-0.06-1.42-0.06-1.42-0.12-2.88 0.12-3.12 0.12-3.12 2.12-5.12 3.26-0.2 3.26-0.2 7.12-0.12 1.29 0.01 2.57 0.03 3.89 0.05 0.99 0.02 1.97 0.05 2.99 0.07-0.06-1.42-0.06-1.42-0.12-2.88 0.12-3.12 0.12-3.12 2.12-5.12 3.26-0.2 3.26-0.2 7.12-0.12 1.29 0.01 2.57 0.03 3.89 0.05 0.99 0.02 1.97 0.05 2.99 0.07-0.06-1.42-0.06-1.42-0.12-2.88 0.12-3.12 0.12-3.12 2.12-5.12 3.26-0.2 3.26-0.2 7.12-0.12 1.93 0.02 1.93 0.02 3.89 0.05 0.99 0.02 1.97 0.05 2.99 0.07-0.04-0.95-0.08-1.9-0.12-2.88 0.12-3.12 0.12-3.12 2.12-5.12 3.26-0.2 3.26-0.2 7.12-0.12 1.93 0.02 1.93 0.02 3.89 0.05 0.99 0.02 1.97 0.05 2.99 0.07-0.04-0.95-0.08-1.9-0.12-2.88 0.12-3.12 0.12-3.12 2.12-5.12 3.26-0.2 3.26-0.2 7.12-0.12 1.93 0.02 1.93 0.02 3.89 0.05 0.99 0.02 1.97 0.05 2.99 0.07-0.04-0.95-0.08-1.9-0.12-2.88 0.12-3.12 0.12-3.12 2.12-5.12 3.12-0.12 3.12-0.12 6 0-0.04-0.95-0.08-1.9-0.12-2.88 0.12-3.12 0.12-3.12 2.12-5.12 3.26-0.2 3.26-0.2 7.12-0.12 1.93 0.02 1.93 0.02 3.89 0.05 0.99 0.02 1.97 0.05 2.99 0.07-0.04-0.95-0.08-1.9-0.12-2.88 0.12-3.12 0.12-3.12 2.12-5.12 3.26-0.2 3.26-0.2 7.12-0.12 1.93 0.02 1.93 0.02 3.89 0.05 0.99 0.02 1.97 0.05 2.99 0.07-0.04-0.95-0.08-1.9-0.12-2.88 0.12-3.12 0.12-3.12 2.12-5.12 3.26-0.2 3.26-0.2 7.12-0.12 1.93 0.02 1.93 0.02 3.89 0.05 0.99 0.02 1.97 0.05 2.99 0.07-0.04-0.95-0.08-1.9-0.12-2.88 0.12-3.12 0.12-3.12 2.12-5.12 3.26-0.2 3.26-0.2 7.12-0.12 1.93 0.02 1.93 0.02 3.89 0.05 0.99 0.02 1.97 0.05 2.99 0.07-0.04-0.95-0.08-1.9-0.12-2.88 0.12-3.12 0.12-3.12 2.12-5.12 3.26-0.2 3.26-0.2 7.12-0.12 1.93 0.02 1.93 0.02 3.89 0.05 0.99 0.02 1.97 0.05 2.99 0.07-0.06-1.42-0.06-1.42-0.12-2.88 0.12-3.12 0.12-3.12 2.12-5.12 3.12-0.12 3.12-0.12 6 0v-8c2.27-0.03 4.54-0.05 6.81-0.06 1.9-0.02 1.9-0.02 3.83-0.04 3.36 0.1 3.36 0.1 6.36 1.1-0.21-1.11-0.41-2.23-0.62-3.38-0.19-1.79-0.19-1.79-0.38-3.62 2-2 2-2 5.26-2.2 1.91 0.04 1.91 0.04 3.86 0.08 1.93 0.02 1.93 0.02 3.89 0.05 0.99 0.02 1.97 0.05 2.99 0.07-0.06-1.42-0.06-1.42-0.12-2.88 0.12-3.12 0.12-3.12 2.12-5.12 3.26-0.2 3.26-0.2 7.12-0.12 1.93 0.02 1.93 0.02 3.89 0.05 0.99 0.02 1.97 0.05 2.99 0.07-0.06-1.42-0.06-1.42-0.12-2.88 0.12-3.12 0.12-3.12 2.12-5.12 3.12-0.12 3.12-0.12 6 0-0.06-1.42-0.06-1.42-0.12-2.88 0.12-3.12 0.12-3.12 2.12-5.12 3.26-0.2 3.26-0.2 7.12-0.12 1.93 0.02 1.93 0.02 3.89 0.05 1.48 0.03 1.48 0.03 2.99 0.07v-7c3.29-1.1 5.74-1.1 9.19-1.06 1.63 0.01 1.63 0.01 3.29 0.02 0.83 0.02 1.66 0.03 2.52 0.04l1-7zm-439 544-1 7c-2.31 0.33-4.62 0.66-7 1l-1 7c-2.31 0.33-4.62 0.66-7 1l-1 7c-2.31 0.33-4.62 0.66-7 1l-1 7-15 1-1 7c-2.31 0.33-4.62 0.66-7 1l-1 7c-2.31 0.33-4.62 0.66-7 1l-1 7c-2.31 0.33-4.62 0.66-7 1l-1 7c-0.75-0.01-1.5-0.02-2.27-0.04-0.98 0-1.97-0.01-2.98-0.02-0.97-0.01-1.95-0.03-2.95-0.04-2.46 0.09-4.46 0.39-6.8 1.1l-1 7c-2.31 0.33-4.62 0.66-7 1l-1 7c-1.13 0.12-2.27 0.25-3.44 0.38-1.17 0.2-2.35 0.41-3.56 0.62-1.23 2.46-1.07 4.28-1 7-2.31 0.33-4.62 0.66-7 1l-1 7-8 1v7c-0.75-0.01-1.5-0.02-2.27-0.04-0.98 0-1.97-0.01-2.98-0.02-1.46-0.02-1.46-0.02-2.95-0.04-2.46 0.09-4.46 0.39-6.8 1.1l-1 7c-3.47 0.5-3.47 0.5-7 1l-1 7c-3.47 0.5-3.47 0.5-7 1l-1 7c-3.47 0.5-3.47 0.5-7 1l-1 7c-1-0.02-1-0.02-2.01-0.04-6.55-0.08-6.55-0.08-13 1.04l-1 7c-2.31 0.33-4.62 0.66-7 1l-1 7c-2.31 0.33-4.62 0.66-7 1l-1 7c-2.31 0.33-4.62 0.66-7 1l-1 7c-0.75-0.01-1.5-0.02-2.27-0.04-0.98 0-1.97-0.01-2.98-0.02-0.97-0.01-1.95-0.03-2.95-0.04-2.46 0.09-4.46 0.39-6.8 1.1l-1 7c-2.31 0.33-4.62 0.66-7 1l-1 7c-2.31 0.33-4.62 0.66-7 1l-1 7c-2.31 0.33-4.62 0.66-7 1l-1 7c-1-0.02-1-0.02-2.01-0.04-6.55-0.08-6.55-0.08-13 1.04l-1 7c-2.31 0.33-4.62 0.66-7 1l-1 7c-2.31 0.33-4.62 0.66-7 1l-1 7c-2.31 0.33-4.62 0.66-7 1l-1 7c-1-0.02-1-0.02-2.01-0.04-6.55-0.08-6.55-0.08-13 1.04l-1 7c-2.31 0.33-4.62 0.66-7 1l-1 7c-2.31 0.33-4.62 0.66-7 1l-1 7c-2.31 0.33-4.62 0.66-7 1v7c-1.48-0.02-1.48-0.02-2.99-0.04-1.28 0-2.56-0.01-3.89-0.02-1.91-0.02-1.91-0.02-3.86-0.04-3.15-0.13-3.15-0.13-5.26 1.1-0.41 2.32-0.74 4.66-1 7-2.31 0.33-4.62 0.66-7 1l-1 7c-2.31 0.33-4.62 0.66-7 1l-1 7c-2.31 0.33-4.62 0.66-7 1l-1 7-8 1v7c-0.75-0.01-1.5-0.02-2.27-0.04-0.98 0-1.97-0.01-2.98-0.02-0.97-0.01-1.95-0.03-2.95-0.04-2.46 0.09-4.46 0.39-6.8 1.1l-1 7c-2.31 0.33-4.62 0.66-7 1l-1 7c-2.31 0.33-4.62 0.66-7 1l-1 7c-2.31 0.33-4.62 0.66-7 1l-1 7c-1-0.02-1-0.02-2.01-0.04-6.55-0.08-6.55-0.08-13 1.04l-1 7c-2.31 0.33-4.62 0.66-7 1l-1 7c-2.31 0.33-4.62 0.66-7 1l-1 7c-2.31 0.33-4.62 0.66-7 1v7c-1.48-0.02-1.48-0.02-2.99-0.04-1.28 0-2.56-0.01-3.89-0.02-1.91-0.02-1.91-0.02-3.86-0.04-3.15-0.13-3.15-0.13-5.26 1.1-0.41 2.32-0.74 4.66-1 7-2.31 0.33-4.62 0.66-7 1l-1 7c-2.31 0.33-4.62 0.66-7 1l-1 7c-2.31 0.33-4.62 0.66-7 1l-1 7-8 1v7c-1.12-0.02-1.12-0.02-2.27-0.04-0.98 0-1.97-0.01-2.98-0.02-0.97-0.01-1.95-0.03-2.95-0.04-2.46 0.09-4.46 0.39-6.8 1.1l-1 7c-2.31 0.33-4.62 0.66-7 1l-1 7c-2.31 0.33-4.62 0.66-7 1l-1 7c-2.31 0.33-4.62 0.66-7 1v7c-1.48-0.02-1.48-0.02-2.99-0.04-1.28 0-2.56-0.01-3.89-0.02-1.91-0.02-1.91-0.02-3.86-0.04-3.15-0.13-3.15-0.13-5.26 1.1-0.41 2.32-0.74 4.66-1 7-2.31 0.33-4.62 0.66-7 1l-2 7c-1.98 0.33-3.96 0.66-6 1l-1 7c-0.92-0.01-1.83-0.02-2.77-0.04-1.19 0-2.38-0.01-3.61-0.02-1.18-0.01-2.36-0.03-3.58-0.04-2.96-0.11-2.96-0.11-5.04 1.1-0.41 2.32-0.74 4.66-1 7-2.31 0.33-4.62 0.66-7 1l-1 7c-2.31 0.33-4.62 0.66-7 1l-1 39c-2.31 0.33-4.62 0.66-7 1-0.14 6.06-0.29 12.1-0.43 18.2-0.05 2.06-0.09 4.12-0.14 6.18-0.07 2.98-0.14 5.95-0.21 8.93-0.02 0.91-0.04 1.81-0.07 2.75-0.14 6.31-0.17 12.6-0.15 19-2.31 0.33-4.62 0.66-7 1l-1 95c-2.31 0.33-4.62 0.66-7 1l-1 79c-2.31 0.33-4.62 0.66-7 1-0.15 8.99-0.3 18-0.44 27-0.07 4.17-0.14 8.34-0.21 12.5-0.07 4.03-0.13 8.07-0.19 12.1-0.03 1.53-0.05 3.07-0.08 4.6-0.28 11-0.28 11 0.92 21.8 1.13 1.36 1.13 1.36 4.06 1.06 1.46-0.03 1.46-0.03 2.94-0.06l2-7c1.98-0.33 3.96-0.66 6-1l2-7c1.98-0.33 3.96-0.66 6-1l2-7c1.98-0.33 3.96-0.66 6-1l2-7c1.98-0.33 3.96-0.66 6-1l2-7c1.98-0.33 3.96-0.66 6-1l2-7c1.98-0.33 3.96-0.66 6-1l1-14c1.11-0.19 2.23-0.37 3.38-0.56 1.19-0.48 2.39-0.95 3.62-1.44 1.54-3.51 1.54-3.51 2-7 1.98-0.33 3.96-0.66 6-1l2-7c1.98-0.33 3.96-0.66 6-1l2-7c1.98-0.33 3.96-0.66 6-1l2-7c1.98-0.33 3.96-0.66 6-1l1-14c1.11-0.19 2.23-0.37 3.38-0.56 1.79-0.71 1.79-0.71 3.62-1.44 1.54-3.51 1.54-3.51 2-7 1.98-0.33 3.96-0.66 6-1l2-7c1.98-0.33 3.96-0.66 6-1l2-7c1.98-0.33 3.96-0.66 6-1l2-7c1.98-0.33 3.96-0.66 6-1l2-7c1.98-0.33 3.96-0.66 6-1l2-7c1.98-0.33 3.96-0.66 6-1l2-7c1.98-0.33 3.96-0.66 6-1l1-14c1.11-0.19 2.23-0.37 3.38-0.56 1.19-0.48 2.39-0.95 3.62-1.44 1.54-3.51 1.54-3.51 2-7 1.98-0.33 3.96-0.66 6-1l2-7c1.98-0.33 3.96-0.66 6-1l2-7c1.98-0.33 3.96-0.66 6-1l2-7c1.98-0.33 3.96-0.66 6-1l2-7c1.98-0.33 3.96-0.66 6-1l2-7c1.98-0.33 3.96-0.66 6-1l1-14c1.11-0.19 2.23-0.37 3.38-0.56 1.19-0.48 2.39-0.95 3.62-1.44 1.54-3.51 1.54-3.51 2-7 1.98-0.33 3.96-0.66 6-1l2-7c1.98-0.33 3.96-0.66 6-1l2-7c1.98-0.33 3.96-0.66 6-1l2-7c1.98-0.33 3.96-0.66 6-1l1-14c1.11-0.19 2.23-0.37 3.38-0.56 1.79-0.71 1.79-0.71 3.62-1.44 1.54-3.51 1.54-3.51 2-7 1.98-0.33 3.96-0.66 6-1l1-14c1.11-0.19 2.23-0.37 3.38-0.56 1.79-0.71 1.79-0.71 3.62-1.44 1.54-3.51 1.54-3.51 2-7 1.98-0.33 3.96-0.66 6-1l2-7c1.98-0.33 3.96-0.66 6-1l1-14c1.11-0.19 2.23-0.37 3.38-0.56 1.79-0.71 1.79-0.71 3.62-1.44 1.54-3.51 1.54-3.51 2-7 1.98-0.33 3.96-0.66 6-1l2-7c1.98-0.33 3.96-0.66 6-1l1-14c1.11-0.19 2.23-0.37 3.38-0.56 1.79-0.71 1.79-0.71 3.62-1.44 1.54-3.51 1.54-3.51 2-7 1.98-0.33 3.96-0.66 6-1l1-14c1.11-0.19 2.23-0.37 3.38-0.56 1.79-0.71 1.79-0.71 3.62-1.44 1.54-3.51 1.54-3.51 2-7 1.98-0.33 3.96-0.66 6-1l1-14c1.11-0.19 2.23-0.37 3.38-0.56 1.79-0.71 1.79-0.71 3.62-1.44 1.54-3.51 1.54-3.51 2-7 1.98-0.33 3.96-0.66 6-1l2-7c1.98-0.33 3.96-0.66 6-1l1-14c1.11-0.19 2.23-0.37 3.38-0.56 1.79-0.71 1.79-0.71 3.62-1.44 1.54-3.51 1.54-3.51 2-7 1.98-0.33 3.96-0.66 6-1l1-14c1.11-0.19 2.23-0.37 3.38-0.56 1.79-0.71 1.79-0.71 3.62-1.44 1.54-3.51 1.54-3.51 2-7 1.98-0.33 3.96-0.66 6-1l2-7c1.98-0.33 3.96-0.66 6-1l1-14c1.11-0.19 2.23-0.37 3.38-0.56 1.79-0.71 1.79-0.71 3.62-1.44 1.54-3.51 1.54-3.51 2-7 1.98-0.33 3.96-0.66 6-1l2-7c1.98-0.33 3.96-0.66 6-1l1-14c1.11-0.19 2.23-0.37 3.38-0.56 1.79-0.71 1.79-0.71 3.62-1.44 1.54-3.51 1.54-3.51 2-7 1.98-0.33 3.96-0.66 6-1l2-7c1.98-0.33 3.96-0.66 6-1l1-14c1.11-0.19 2.23-0.37 3.38-0.56 1.19-0.48 2.39-0.95 3.62-1.44 1.54-3.51 1.54-3.51 2-7 1.98-0.33 3.96-0.66 6-1l1-14c1.11-0.19 2.23-0.37 3.38-0.56 1.19-0.48 2.39-0.95 3.62-1.44 1.54-3.51 1.54-3.51 2-7 1.98-0.33 3.96-0.66 6-1l2-7c1.98-0.33 3.96-0.66 6-1l1-14c1.11-0.19 2.23-0.37 3.38-0.56 1.19-0.48 2.39-0.95 3.62-1.44 1.54-3.51 1.54-3.51 2-7 1.98-0.33 3.96-0.66 6-1l1-14c1.11-0.19 2.23-0.37 3.38-0.56 1.19-0.48 2.39-0.95 3.62-1.44 1.54-3.51 1.54-3.51 2-7 1.98-0.33 3.96-0.66 6-1l2-7c1.98-0.33 3.96-0.66 6-1l1-14c1.11-0.19 2.23-0.37 3.38-0.56 1.19-0.48 2.39-0.95 3.62-1.44 1.54-3.51 1.54-3.51 2-7 2.97-0.5 2.97-0.5 6-1l2-7c2.97-0.5 2.97-0.5 6-1l1-14c1.11-0.19 2.23-0.37 3.38-0.56 1.19-0.48 2.39-0.95 3.62-1.44 1.54-3.51 1.54-3.51 2-7 2.97-0.5 2.97-0.5 6-1l2-7c2.97-0.5 2.97-0.5 6-1l1-14 7-2 1-14c1.11-0.19 2.23-0.37 3.38-0.56 1.19-0.48 2.39-0.95 3.62-1.44 1.54-3.51 1.54-3.51 2-7 2.97-0.5 2.97-0.5 6-1l2-7c2.97-0.5 2.97-0.5 6-1l1-14c1.11-0.19 2.23-0.37 3.38-0.56 1.19-0.48 2.39-0.95 3.62-1.44 1.54-3.51 1.54-3.51 2-7 2.97-0.5 2.97-0.5 6-1 0.03-2.31 0.05-4.62 0.06-6.94 0.02-1.93 0.02-1.93 0.04-3.9 0.27-3.02 0.27-3.02-1.1-4.16-2.35-0.07-4.71-0.08-7.06-0.06-1.29 0.01-2.58 0.02-3.91 0.02-1 0.02-2 0.03-3.03 0.04zm-1065 275v5h1v-5h-1zm-40 22 1 2zm0 4 1 3z" fill="#F9FCFE"/>
<path transform="translate(422,1376)" d="m0 0h1v110h-1v-110z" fill="#FAFDFF"/>
<path transform="translate(430,1281)" d="m0 0h1v54h-1v-54z" fill="#FAFDFF"/>
<path transform="translate(446,1139)" d="m0 0h1v47h-1v-47z" fill="#FAFDFF"/>
<path transform="translate(454,1036)" d="m0 0h1v45h-1v-45z" fill="#FAFDFF"/>
<path transform="translate(438,1210)" d="m0 0h1v40h-1v-40z" fill="#FAFDFF"/>
<path transform="translate(1527,290)" d="m0 0h1v7h-1v-7z" fill="#000202"/>
<path transform="translate(1551,201)" d="m0 0h1v7h-1v-7z" fill="#000202"/>
<path transform="translate(1551,211)" d="m0 0h1v5h-1v-5z" fill="#000202"/>
<path transform="translate(19,830)" d="m0 0 2 1z" fill="#FAFDFF"/>
<path transform="translate(1477,46)" d="m0 0 2 1z" fill="#FAFDFF"/>
</svg>